<svg id="svg" version="1.1" xmlns="http://www.w3.org/2000/svg" xmlns:xlink="http://www.w3.org/1999/xlink" width="400" height="381.0144253140996" viewBox="0, 0, 400,381.0144253140996"><g id="svgg"><path id="path0" d="M49.580 143.469 C 49.631 143.551,59.136 168.910,70.703 199.822 C 82.270 230.734,91.792 256.173,91.862 256.352 C 91.982 256.658,92.758 256.678,104.494 256.678 L 116.998 256.678 138.289 200.605 C 149.999 169.765,159.693 144.260,159.830 143.927 L 160.079 143.322 148.397 143.324 L 136.715 143.326 134.732 149.141 C 133.641 152.339,127.261 170.912,120.554 190.414 C 109.834 221.586,106.102 232.679,105.350 235.610 C 105.045 236.801,104.820 236.519,104.113 234.056 C 103.108 230.557,99.027 218.387,85.828 179.525 L 73.564 143.416 61.526 143.368 C 54.905 143.341,49.529 143.387,49.580 143.469 " stroke="none" fill="#fbfbfb" fill-rule="evenodd"></path><path id="path1" d="M15.635 95.288 C 8.511 96.050,2.693 100.927,0.524 107.957 L 0.093 109.353 0.042 199.349 C -0.004 281.243,0.018 289.478,0.289 290.830 C 1.617 297.452,6.444 302.495,13.245 304.366 L 14.798 304.793 85.020 304.759 L 155.243 304.726 182.088 289.240 C 196.854 280.723,209.031 273.660,209.149 273.545 C 209.561 273.145,209.552 111.026,209.140 109.167 C 207.578 102.122,202.053 96.809,195.025 95.596 C 193.287 95.296,18.369 94.996,15.635 95.288 M304.798 96.459 C 304.497 99.684,303.389 102.767,301.613 105.322 C 300.653 106.703,223.005 184.436,220.521 186.503 L 219.079 187.704 219.079 189.338 C 219.079 190.260,219.157 190.973,219.258 190.973 C 222.433 190.973,232.600 193.156,238.847 195.180 C 276.965 207.528,303.082 242.197,304.665 282.550 L 304.793 285.807 344.905 285.807 L 385.016 285.807 386.807 285.312 C 393.152 283.559,397.531 279.315,399.484 273.025 L 399.907 271.661 399.958 191.159 C 400.004 117.959,399.982 110.521,399.711 109.170 C 398.398 102.623,393.563 97.556,386.878 95.720 L 385.016 95.209 344.971 95.157 L 304.925 95.104 304.798 96.459 M212.192 98.895 C 212.192 98.927,212.464 99.199,212.797 99.500 L 213.402 100.047 212.855 99.442 C 212.345 98.878,212.192 98.751,212.192 98.895 M214.053 100.756 C 214.053 100.788,214.325 101.060,214.658 101.361 L 215.263 101.908 214.716 101.303 C 214.207 100.739,214.053 100.612,214.053 100.756 M218.936 111.308 C 218.936 111.666,218.974 111.812,219.021 111.633 C 219.068 111.454,219.068 111.161,219.021 110.982 C 218.974 110.803,218.936 110.949,218.936 111.308 M83.992 173.896 C 101.721 226.133,102.772 229.267,104.429 234.853 C 104.933 236.552,105.000 236.541,105.530 234.667 C 106.511 231.195,111.531 216.367,123.031 182.969 C 129.712 163.569,135.510 146.712,135.916 145.510 L 136.654 143.322 148.384 143.322 C 157.691 143.322,160.096 143.371,160.027 143.555 C 159.980 143.683,150.277 169.230,138.467 200.326 L 116.993 256.864 104.491 256.864 C 92.758 256.864,91.982 256.844,91.862 256.538 C 91.791 256.359,82.282 230.959,70.729 200.093 C 59.177 169.228,49.668 143.827,49.598 143.648 C 49.478 143.340,50.122 143.323,61.544 143.324 L 73.616 143.325 83.992 173.896 " stroke="none" fill="#1a67c6" fill-rule="evenodd"></path><path id="path2" d="M205.863 0.348 C 203.824 0.794,201.748 1.665,199.946 2.829 C 198.365 3.850,120.235 81.684,117.959 84.504 C 115.909 87.047,114.562 90.430,114.348 93.578 L 114.231 95.300 159.011 95.300 C 208.087 95.300,204.812 95.226,207.830 96.398 C 212.837 98.342,216.770 102.664,218.473 108.091 L 218.986 109.725 219.079 148.695 L 219.172 187.664 220.847 186.210 C 223.890 183.568,300.682 106.660,301.612 105.322 C 305.750 99.374,305.866 91.417,301.902 85.496 C 301.150 84.373,221.445 4.571,219.916 3.411 C 216.150 0.553,210.526 -0.673,205.863 0.348 M98.245 256.817 C 101.759 256.845,107.455 256.845,110.902 256.817 C 114.350 256.789,111.475 256.765,104.514 256.766 C 97.552 256.766,94.732 256.789,98.245 256.817 " stroke="none" fill="#3ba1e8" fill-rule="evenodd"></path><path id="path3" d="M209.585 239.041 C 209.585 273.218,209.524 288.167,209.380 289.344 C 208.525 296.356,203.657 302.070,196.743 304.180 L 195.347 304.606 155.833 304.655 C 124.353 304.695,116.301 304.752,116.230 304.938 C 115.792 306.079,120.310 320.110,122.586 324.678 C 122.832 325.173,123.034 325.690,123.034 325.828 C 123.034 325.966,123.139 326.191,123.267 326.329 C 123.395 326.467,123.514 326.661,123.531 326.761 C 123.623 327.276,125.161 330.275,125.614 330.820 C 125.729 330.959,125.768 331.127,125.700 331.194 C 125.633 331.262,125.680 331.317,125.806 331.317 C 125.931 331.317,125.987 331.393,125.929 331.487 C 125.871 331.581,125.887 331.685,125.964 331.720 C 126.042 331.754,126.273 332.117,126.478 332.527 L 126.850 333.271 165.100 333.271 C 207.644 333.271,204.536 333.361,207.883 332.038 C 212.894 330.059,217.067 325.378,218.566 320.056 L 218.986 318.567 219.034 254.778 L 219.083 190.990 218.476 190.888 C 217.794 190.774,211.665 190.414,210.403 190.414 L 209.586 190.414 209.585 239.041 " stroke="none" fill="#04265d" fill-rule="evenodd"></path><path id="path4" d="M195.064 95.577 C 202.152 96.904,207.585 102.150,209.140 109.167 C 209.552 111.026,209.561 273.145,209.149 273.545 C 209.031 273.660,196.915 280.685,182.224 289.157 C 167.534 297.628,155.477 304.593,155.432 304.635 C 155.386 304.676,164.349 304.685,175.348 304.655 L 195.347 304.601 196.743 304.177 C 203.645 302.084,208.525 296.356,209.380 289.344 C 209.524 288.167,209.585 273.218,209.585 239.041 L 209.586 190.414 210.403 190.414 C 211.665 190.414,217.794 190.774,218.476 190.888 L 219.083 190.990 219.034 254.778 L 218.986 318.567 218.566 320.056 C 217.068 325.373,212.893 330.059,207.895 332.034 C 204.570 333.347,207.938 333.243,165.333 333.356 L 126.944 333.457 128.601 336.099 C 161.310 388.224,233.547 396.468,277.001 353.035 C 321.194 308.862,311.223 234.626,256.869 203.155 C 246.158 196.953,227.694 190.973,219.258 190.973 C 219.144 190.973,219.078 176.732,219.078 151.745 C 219.078 106.627,219.179 109.064,217.122 104.979 C 213.709 98.200,208.551 95.469,198.976 95.371 C 193.976 95.319,193.751 95.331,195.064 95.577 " stroke="none" fill="#053d92" fill-rule="evenodd"></path></g></svg>